<?xml version="1.0"?>
<svg xmlns="http://www.w3.org/2000/svg" width="50" height="50" viewBox="0 0 50 50">
    <path d="M 15.75 3.0625 A 1.0001 1.0001 0 0 0 15.625 3.09375 C 15.625 3.09375 12.381814 3.6505073 9.34375 6.6875 C 6.2965215 9.733654 5.71875 13.125 5.71875 13.125 A 1.0001 1.0001 0 1 0 7.6875 13.46875 C 7.6875 13.46875 8.1252285 10.748846 10.75 8.125 C 13.383936 5.4919927 15.96875 5.0625 15.96875 5.0625 A 1.0001 1.0001 0 0 0 15.75 3.0625 z M 28.84375 4 C 28.1565 4 27.462 4.25675 26.9375 4.78125 L 25.875 5.84375 C 26.87 6.32875 27.68925 6.969 28.15625 7.625 L 29.5 9.8125 L 30.75 8.59375 C 31.8 7.54475 31.8 5.83025 30.75 4.78125 C 30.2255 4.25675 29.531 4 28.84375 4 z M 22.75 7.0625 C 22.238 7.0555 21.73075 7.096 21.21875 7.25 L 14.96875 9.125 C 12.61475 9.832 10.986 11.9825 10.875 14.4375 L 10.375 25.4375 L 3.28125 32.53125 C 3.11425 32.69825 3.02 32.92025 3 33.15625 L 2.96875 33.40625 C 2.96475 33.45525 2.96575 33.5145 2.96875 33.5625 C 2.97675 33.6915 3.96675 46.42575 18.34375 46.71875 L 18.375 46.71875 C 18.64 46.71875 18.90675 46.6255 19.09375 46.4375 L 25.125 40.40625 L 20.34375 37.625 C 19.86675 37.348 19.69075 36.727 19.96875 36.25 C 20.24575 35.771 20.86575 35.597 21.34375 35.875 L 26.4375 38.84375 C 28.2195 39.49275 30.019 39.47675 31.625 38.84375 C 32.504 38.41375 33.31725 37.839 34.03125 37.125 L 39.78125 31.40625 C 39.42825 31.48925 39.0595 31.53125 38.6875 31.53125 C 37.4375 31.53125 36.26 31.03925 35.375 30.15625 C 34.488 29.27025 34 28.09575 34 26.84375 C 34 26.55375 34.04275 26.28 34.09375 26 C 32.85075 25.996 31.66225 25.504 30.78125 24.625 C 29.89425 23.74 29.40625 22.5645 29.40625 21.3125 C 29.40625 21.2695 29.4355 21.2305 29.4375 21.1875 C 27.9515 21.5355 26.6065 20.95025 25.9375 20.40625 C 25.8905 20.36825 25.8515 20.32625 25.8125 20.28125 L 22.9375 16.9375 L 22.34375 17.03125 C 23.94175 19.48125 26.98025 24.866 25.90625 28.75 C 25.78325 29.193 25.40675 29.46875 24.96875 29.46875 C 24.88075 29.46875 24.7765 29.4615 24.6875 29.4375 C 24.1555 29.2905 23.853 28.75075 24 28.21875 C 24.948 24.79175 21.31975 18.9125 19.84375 16.9375 C 19.63675 16.6605 19.59275 16.29075 19.71875 15.96875 C 19.84475 15.64675 20.12875 15.40675 20.46875 15.34375 L 23.125 14.84375 C 23.474 14.77875 23.86075 14.9165 24.09375 15.1875 L 27.25 18.90625 C 27.603 19.15725 28.85 19.8375 30.25 18.4375 C 30.537 18.1715 31.74075 16.95625 30.46875 15.15625 L 26.5625 8.875 C 26.3275 8.593 26.0955 8.345 25.8125 8.125 C 25.7955 8.113 25.767 8.10575 25.75 8.09375 C 25.677 8.03875 25.60725 7.9885 25.53125 7.9375 C 24.80325 7.4895 23.791 7.1205 22.75 7.0625 z M 34.84375 8 C 34.1565 8 33.462 8.25675 32.9375 8.78125 L 30.4375 11.3125 L 32.125 14.03125 C 32.686 14.82425 32.95925 15.6025 33.03125 16.3125 L 36.75 12.59375 C 37.801 11.54575 37.8 9.83025 36.75 8.78125 C 36.2255 8.25675 35.531 8 34.84375 8 z M 38.84375 14 C 38.1565 14 37.462 14.25675 36.9375 14.78125 L 32.1875 19.40625 C 31.1365 20.45525 31.1365 22.16975 32.1875 23.21875 C 33.2365 24.26575 34.951 24.26575 36 23.21875 L 40.75 18.59375 C 41.8 17.54475 41.8 15.83025 40.75 14.78125 C 40.2255 14.25675 39.531 14 38.84375 14 z M 41.84375 21 C 41.1565 21 40.462 21.25675 39.9375 21.78125 L 36.78125 24.9375 C 35.73025 25.9865 35.73025 27.701 36.78125 28.75 C 37.83025 29.797 39.54475 29.797 40.59375 28.75 L 43.75 25.59375 C 44.8 24.54475 44.8 22.83025 43.75 21.78125 C 43.2255 21.25675 42.531 21 41.84375 21 z M 45.125 30.8125 A 1.0001 1.0001 0 0 0 44.4375 31.34375 C 44.4375 31.34375 42.665791 34.741413 39.875 37.53125 C 37.093194 40.313056 33.65625 42.03125 33.65625 42.03125 A 1.0132183 1.0132183 0 1 0 34.5625 43.84375 C 34.5625 43.84375 38.244306 42.005694 41.3125 38.9375 C 44.373709 35.877337 46.21875 32.28125 46.21875 32.28125 A 1.0001 1.0001 0 0 0 45.21875 30.8125 A 1.0001 1.0001 0 0 0 45.125 30.8125 z M 46.0625 37.125 A 1.0001 1.0001 0 0 0 45.375 37.59375 C 45.375 37.59375 44.372691 39.220125 42.96875 40.625 C 41.570904 42.021916 39.9375 43 39.9375 43 A 1.0021949 1.0021949 0 1 0 40.96875 44.71875 C 40.96875 44.71875 42.766846 43.638334 44.375 42.03125 C 45.977059 40.428125 47.0625 38.65625 47.0625 38.65625 A 1.0001 1.0001 0 0 0 46.0625 37.125 z"/>
</svg>
