<?xml version="1.0"?>
<svg xmlns="http://www.w3.org/2000/svg" viewBox="0 0 50 50" enable-background="new 0 0 50 50">
    <path style="text-indent:0;text-align:start;line-height:normal;text-transform:none;block-progression:tb;-inkscape-font-specification:Bitstream Vera Sans" d="M 26.90625 0 C 24.444846 0 22.90625 2.0761905 22.90625 4 L 22.90625 17.59375 C 22.275512 17.237995 21.592053 17 20.90625 17 C 19.968155 17 18.992286 17.312926 18.21875 17.96875 C 17.445214 18.624574 16.90625 19.675548 16.90625 20.90625 L 16.90625 29.375 L 13.65625 25.46875 A 1.0001 1.0001 0 0 0 13.625 25.40625 C 11.95232 23.604903 9.0855034 23.636222 7.3125 25.375 C 7.30586 25.3812 7.31909 25.40005 7.3125 25.40625 C 5.5483418 27.065204 5.5363162 29.8551 7.21875 31.625 L 7.28125 31.71875 L 18.71875 46.5 C 20.408028 48.739165 23.027421 50 25.8125 50 L 33.90625 50 C 38.851705 50 42.90625 45.945455 42.90625 41 L 42.90625 23 C 42.90625 22.252381 42.86787 21.112257 42.34375 20.03125 C 41.819626 18.950243 40.615774 18 38.90625 18 C 37.972147 18 37.200841 18.314245 36.59375 18.75 C 36.441656 18.227858 36.247616 17.7469 35.9375 17.34375 C 35.233508 16.42856 34.10625 16 32.90625 16 C 32.13062 16 31.477115 16.207978 30.90625 16.5 L 30.90625 4 C 30.90625 2.0761905 29.367654 0 26.90625 0 z M 26.90625 2 C 28.244846 2 28.90625 3.1238095 28.90625 4 L 28.90625 20 L 28.90625 22 L 30.90625 22 L 30.90625 20 C 30.90625 19.466667 31.038957 18.933831 31.3125 18.59375 C 31.586043 18.253669 31.988134 18 32.90625 18 C 33.70625 18 34.047742 18.17769 34.34375 18.5625 C 34.639758 18.94731 34.90625 19.719048 34.90625 21 L 34.90625 23 L 34.90625 24 L 36.90625 24 L 36.90625 23 C 36.90625 22.347619 36.97412 21.475243 37.25 20.90625 C 37.525876 20.337257 37.815774 20 38.90625 20 C 39.996726 20 40.286624 20.337257 40.5625 20.90625 C 40.838376 21.475243 40.90625 22.347619 40.90625 23 L 40.90625 41 C 40.90625 44.854545 37.760795 48 33.90625 48 L 25.8125 48 C 23.605833 48 21.6237 47.060767 20.3125 45.3125 A 1.0001 1.0001 0 0 0 20.28125 45.28125 L 8.78125 30.375 A 1.0001 1.0001 0 0 0 8.71875 30.28125 C 7.6891393 29.251639 7.6997382 27.760957 8.6875 26.84375 A 1.0001 1.0001 0 0 0 8.71875 26.8125 C 9.7368616 25.794388 11.205004 25.79476 12.125 26.75 C 12.13539 26.76079 12.14601 26.77022 12.15625 26.78125 L 17.125 32.75 A 1.0001 1.0001 0 0 0 18.90625 32.09375 L 18.90625 20.90625 C 18.90625 20.236952 19.154786 19.819176 19.53125 19.5 C 19.907714 19.180824 20.444345 19 20.90625 19 C 21.368155 19 21.906612 19.174228 22.28125 19.5 C 22.655888 19.825772 22.90625 20.266667 22.90625 21 L 22.90625 23 L 24.90625 23 L 24.90625 21 L 24.90625 4 C 24.90625 3.1238095 25.567654 2 26.90625 2 z" stroke-width="2" overflow="visible" enable-background="accumulate" font-family="Bitstream Vera Sans"/>
</svg>
