<?xml version="1.0"?>
<svg xmlns="http://www.w3.org/2000/svg" viewBox="0 0 50 50" enable-background="new 0 0 50 50">
    <path style="text-indent:0;text-align:start;line-height:normal;text-transform:none;block-progression:tb;-inkscape-font-specification:Bitstream Vera Sans" d="M 26 0 C 23.538596 0 22 2.0761905 22 4 L 22 4.59375 C 21.369262 4.2379952 20.685803 4 20 4 C 18.12381 4 16.034707 5.4030619 15.90625 7.84375 A 1.0001 1.0001 0 0 0 15.90625 7.90625 L 15.90625 29.375 L 12.65625 25.46875 A 1.0001 1.0001 0 0 0 12.625 25.40625 C 10.95232 23.604903 8.0855034 23.636222 6.3125 25.375 C 6.30586 25.3812 6.31909 25.40005 6.3125 25.40625 C 4.5483418 27.065204 4.5363162 29.8551 6.21875 31.625 L 6.28125 31.71875 L 17.8125 46.5 C 19.5013 48.751733 22.112917 50 24.90625 50 L 33 50 C 37.945455 50 42 45.945455 42 41 L 42 12 C 42 11.252381 41.961624 10.112257 41.4375 9.03125 C 40.913376 7.9502434 39.709524 7 38 7 C 37.205689 7 36.56136 7.2639298 36 7.59375 L 36 7 C 36 5.4809524 35.735242 4.2589402 35.03125 3.34375 C 34.327258 2.4285598 33.2 2 32 2 C 31.092013 2 30.369791 2.2983404 29.75 2.6875 C 29.233021 1.2382051 27.900109 0 26 0 z M 26 2 C 27.338596 2 28 3.1238095 28 4 L 28 6 L 28 22 L 30 22 L 30 6 C 30 5.4666667 30.132707 4.9338307 30.40625 4.59375 C 30.679793 4.2536693 31.081884 4 32 4 C 32.8 4 33.172742 4.1776902 33.46875 4.5625 C 33.764758 4.9473098 34 5.7190476 34 7 L 34 12 L 34 24 L 36 24 L 36 12 C 36 11.347619 36.06787 10.475243 36.34375 9.90625 C 36.619626 9.3372566 36.909524 9 38 9 C 39.090476 9 39.380374 9.3372566 39.65625 9.90625 C 39.932126 10.475243 40 11.347619 40 12 L 40 41 C 40 44.854545 36.854545 48 33 48 L 24.90625 48 C 22.699583 48 20.71745 47.060767 19.40625 45.3125 A 1.0001 1.0001 0 0 0 19.375 45.28125 L 7.78125 30.375 A 1.0001 1.0001 0 0 0 7.71875 30.28125 C 6.6891393 29.251639 6.6997382 27.760957 7.6875 26.84375 A 1.0001 1.0001 0 0 0 7.71875 26.8125 C 8.7368616 25.794388 10.205004 25.79476 11.125 26.75 C 11.13539 26.76079 11.14601 26.77022 11.15625 26.78125 L 16.125 32.75 A 1.0001 1.0001 0 0 0 17.90625 32.09375 L 17.90625 7.9375 L 17.90625 7.90625 C 17.994695 6.5716296 19.084119 6 20 6 C 20.461905 6 21.000362 6.1742276 21.375 6.5 C 21.749638 6.8257724 22 7.2666667 22 8 L 22 23 L 24 23 L 24 8 L 24 4 C 24 3.1238095 24.661404 2 26 2 z" stroke-width="2" overflow="visible" enable-background="accumulate" font-family="Bitstream Vera Sans"/>
</svg>
