<?xml version="1.0"?>
<svg xmlns="http://www.w3.org/2000/svg" viewBox="0 0 50 50" enable-background="new 0 0 50 50">
    <path style="text-indent:0;text-align:start;line-height:normal;text-transform:none;block-progression:tb;-inkscape-font-specification:Bitstream Vera Sans" d="M 23 7 C 20.939398 7 19.282094 8.5605611 19.0625 10.5625 C 18.463015 10.204097 17.749504 10 17 10 C 14.790196 10 13 11.790196 13 14 L 13 18.28125 L 11.75 18.71875 L 11.65625 18.75 L 11.65625 18.78125 C 11.56187 18.80612 10.473076 19.088456 9.34375 20.0625 C 8.1664413 21.077929 7 22.871641 7 25.59375 C 7 27.56826 7.7846944 29.37262 8.09375 30.09375 A 1.0001 1.0001 0 0 0 8.09375 30.125 L 12.09375 38.34375 C 13.46069 41.191542 16.33588 42.90625 19.40625 42.90625 L 32 42.90625 C 36.945455 42.90625 41 38.851705 41 33.90625 L 41 23 C 41 19.151124 39.380352 16.305216 39 15.6875 L 39 14 C 39 11.790196 37.209804 10 35 10 C 34.171323 10 33.388385 10.256284 32.75 10.6875 C 32.205788 9.1250212 30.748397 8 29 8 C 28.016241 8 27.102765 8.3488455 26.40625 8.9375 C 25.706314 7.7764978 24.455022 7 23 7 z M 23 9 C 24.190196 9 25 9.8098039 25 11 L 25 17.1875 C 24.032976 15.991595 22.520325 15.361901 21 15.53125 L 21 14 L 21 11 C 21 9.8098039 21.809804 9 23 9 z M 29 10 C 30.190196 10 31 10.809804 31 12 L 31 19 C 31 20.190196 30.190196 21 29 21 C 27.809804 21 27 20.190196 27 19 L 27 18.15625 A 1.0001 1.0001 0 0 0 27 18 L 27 12 C 27 10.809804 27.809804 10 29 10 z M 17 12 C 18.190196 12 19 12.809804 19 14 L 19 16.125 L 15 17.5625 L 15 14 C 15 12.809804 15.809804 12 17 12 z M 35 12 C 36.190196 12 37 12.809804 37 14 L 37 15.71875 A 1.0001 1.0001 0 0 0 37 15.8125 A 1.0001 1.0001 0 0 0 37 16.1875 L 37 21 C 37 22.190196 36.190196 23 35 23 C 33.809804 23 33 22.190196 33 21 L 33 14 C 33 12.809804 33.809804 12 35 12 z M 21.5 17.46875 C 22.469766 17.433487 23.336168 17.99857 23.78125 19 C 24.369109 20.322683 23.83524 21.687808 22.5 22.28125 A 1.0001 1.0001 0 0 0 22.375 22.34375 L 17.09375 25.53125 A 1.0001 1.0001 0 0 0 16.6875 26.84375 L 19 31.625 A 1.0001 1.0001 0 1 0 20.8125 30.78125 L 18.90625 26.78125 L 19.21875 26.59375 A 1.0001 1.0001 0 0 0 19.5625 26.75 C 19.5625 26.75 24.817906 28.467441 26.03125 35.1875 A 1.0001 1.0001 0 1 0 27.96875 34.8125 C 26.934727 29.085606 23.147791 26.361431 21.28125 25.34375 L 23.3125 24.125 L 23.375 24.09375 C 23.38881 24.08735 23.39253 24.06902 23.40625 24.0625 C 24.575587 23.506778 25.406491 22.494254 25.78125 21.34375 C 26.508033 22.345787 27.666953 23 29 23 C 29.828677 23 30.611615 22.743716 31.25 22.3125 C 31.794212 23.874979 33.251603 25 35 25 C 36.933578 25 38.533383 23.635551 38.90625 21.8125 C 38.946324 22.193374 39 22.594703 39 23 L 39 33.90625 C 39 37.760795 35.854545 40.90625 32 40.90625 L 19.40625 40.90625 C 17.07662 40.90625 14.93931 39.620958 13.90625 37.46875 L 9.90625 29.25 L 9.875 29.25 C 9.5768693 28.548424 9 26.989999 9 25.59375 C 9 23.415859 9.8335587 22.272071 10.65625 21.5625 C 11.478941 20.852929 12.25 20.65625 12.25 20.65625 A 1.0001 1.0001 0 0 0 12.34375 20.65625 L 20.21875 17.8125 A 1.0001 1.0001 0 0 0 20.4375 17.75 A 1.0001 1.0001 0 0 0 20.5 17.71875 C 20.830671 17.571785 21.176745 17.480504 21.5 17.46875 z" overflow="visible" enable-background="accumulate" font-family="Bitstream Vera Sans"/>
</svg>
